<?xml version="1.0" encoding="UTF-8" standalone="no"?>
<!-- Created with Inkscape (http://www.inkscape.org/) -->

<svg
   xmlns:dc="http://purl.org/dc/elements/1.1/"
   xmlns:cc="http://creativecommons.org/ns#"
   xmlns:rdf="http://www.w3.org/1999/02/22-rdf-syntax-ns#"
   xmlns:svg="http://www.w3.org/2000/svg"
   xmlns="http://www.w3.org/2000/svg"
   xmlns:sodipodi="http://sodipodi.sourceforge.net/DTD/sodipodi-0.dtd"
   xmlns:inkscape="http://www.inkscape.org/namespaces/inkscape"
   id="svg2"
   sodipodi:version="0.32"
   inkscape:version="0.47 r22583"
   width="900"
   height="561.68335"
   sodipodi:docname="Layout.svg"
   inkscape:output_extension="org.inkscape.output.svg.inkscape"
   version="1.0"
   inkscape:export-filename="/home/caiosba/Meu Site/sig.png"
   inkscape:export-xdpi="90"
   inkscape:export-ydpi="90">
  <metadata
     id="metadata7">
    <rdf:RDF>
      <cc:Work
         rdf:about="">
        <dc:format>image/svg+xml</dc:format>
        <dc:type
           rdf:resource="http://purl.org/dc/dcmitype/StillImage" />
        <dc:title></dc:title>
      </cc:Work>
    </rdf:RDF>
  </metadata>
  <defs
     id="defs5">
    <inkscape:perspective
       sodipodi:type="inkscape:persp3d"
       inkscape:vp_x="0 : 204.58539 : 1"
       inkscape:vp_y="0 : 1000 : 0"
       inkscape:vp_z="655.62512 : 204.58539 : 1"
       inkscape:persp3d-origin="327.81256 : 136.39026 : 1"
       id="perspective23" />
    <mask
       maskUnits="userSpaceOnUse"
       id="mask2331">
      <rect
         y="-221.78563"
         x="-149.95825"
         height="175.42285"
         width="681.88562"
         id="rect2333"
         style="fill:#eeeeec;fill-opacity:1;stroke:#204a87;stroke-width:1;stroke-linecap:butt;stroke-linejoin:miter;stroke-miterlimit:4;stroke-opacity:1;stroke-dasharray:none;stroke-dashoffset:0"
         mask="none" />
    </mask>
  </defs>
  <sodipodi:namedview
     inkscape:window-height="548"
     inkscape:window-width="1016"
     inkscape:pageshadow="2"
     inkscape:pageopacity="0.0"
     guidetolerance="10.0"
     gridtolerance="10.0"
     objecttolerance="10.0"
     borderopacity="1.0"
     bordercolor="#666666"
     pagecolor="#ffffff"
     id="base"
     showguides="true"
     inkscape:guide-bbox="true"
     inkscape:zoom="0.55547312"
     inkscape:cx="450"
     inkscape:cy="280.84167"
     inkscape:window-x="0"
     inkscape:window-y="0"
     inkscape:current-layer="svg2"
     showgrid="false"
     inkscape:window-maximized="0" />
  <g
     id="g2167"
     transform="matrix(1.3727357,0,0,1.3727357,-99.536011,-111.95368)">
    <path
       sodipodi:nodetypes="ccccccccccccccccccc"
       d="m 84.853965,330.10321 c 20.975215,4.43605 41.598325,0.0603 62.009145,-4.92497 36.57558,-10.15446 58.49156,-34.15421 75.86155,-66.53592 11.36378,-31.09928 1.68159,-9.15242 -9.50051,4.61709 -35.68584,49.63099 -52.22305,98.09236 -72.09739,154.36802 -2.49518,12.42443 -25.01502,78.16859 20.47975,24.80588 36.65765,-49.57677 64.89147,-76.87507 86.33799,-134.89346 8.95761,-54.86034 -6.16575,-28.70468 -21.0757,-6.28167 -8.62536,14.34312 -15.07599,29.75021 -21.35843,45.20342 l -10.15248,4.66901 c 6.87519,-15.51517 13.8283,-31.01321 22.22409,-45.78813 17.13729,-27.91321 58.7789,-62.26969 38.07207,-1.37465 -23.33569,56.39911 -54.03304,112.48525 -98.35226,155.31457 -38.58369,33.8075 -37.5282,3.31834 -27.17294,-38.31682 18.21759,-57.06573 42.11862,-110.574 74.93118,-161.11905 12.98852,-18.00984 48.72464,-44.68063 27.96965,-5.81509 -16.43928,46.83441 -52.01169,64.3451 -93.81102,76.99259 -21.76373,5.57633 -44.16841,10.76056 -66.709428,6.98338 l 12.344733,-7.9042 z"
       id="path1899"
       style="fill:#000000;fill-opacity:1;fill-rule:nonzero;stroke:none" />
    <path
       d="m 243.51874,349.96199 c -1.20034,-0.18889 -2.4059,0.0863 -3.57666,0.14006 -3.00897,1.08429 5.93241,-2.39776 8.8444,-3.72061 -0.80012,2.76029 -0.67358,5.68049 -0.74385,8.5276 -0.0894,3.87536 -0.0327,7.75329 0.18835,11.61665 -0.13445,0.17342 -15.53337,11.13671 -6.10257,1.91222 3.67925,-4.15977 6.33275,-9.05717 8.91173,-13.93386 1.21188,-6.73219 14.72997,-7.72511 15.29745,-7.93201 2.71787,1.76496 5.9061,2.39033 9.03164,2.97758 -8.95648,3.69043 -10.1768,10.771 -8.59238,-0.5207 0.21845,-11.87723 -1.05267,-8.48699 13.36113,-16.39354 1.54648,3.22244 2.11191,6.74996 3.46838,10.04994 1.34811,2.38995 2.72158,1.83425 4.65716,2.05199 -4.02306,2.23262 -8.04612,4.46524 -12.06919,6.69786 0.16656,-0.10768 0.33312,-0.21536 0.49968,-0.32304 l 13.386,-5.81069 c -0.0984,0.26589 -0.19685,0.53178 -0.29528,0.79768 -4.3843,2.47965 -8.76859,4.9593 -13.15289,7.43896 -2.26203,-0.93843 -4.30215,-1.12809 -5.51328,-3.76217 -1.13882,-2.90268 -1.84133,-5.91392 -3.02286,-8.79136 16.50124,-9.95899 11.17843,-9.52518 11.39354,1.69294 -0.81697,9.87977 -3.05614,11.50078 -15.89318,15.13666 -3.37314,-0.86408 -6.90441,-1.62871 -9.72652,-3.77282 3.20017,-2.09996 12.40864,-8.4797 10.13287,-5.40209 -2.65241,4.9542 -5.39258,9.90878 -8.87986,14.33943 -4.65285,5.34593 -14.05722,16.3272 -19.69218,10.21944 -0.10519,-3.93639 -0.0479,-7.88053 -0.0933,-11.82259 -0.0221,-2.94157 -0.20683,-5.92368 0.2858,-8.8352 2.59546,-6.30197 9.22025,-9.64156 15.97014,-11.14398 1.2819,-0.0296 2.56433,-0.0696 3.84672,-0.0954 l -11.92095,8.66107 z"
       id="path1901"
       style="fill:#000000;fill-opacity:1;fill-rule:nonzero;stroke:none" />
    <path
       d="m 273.86582,312.99975 c 0.38572,1.22948 1.73131,1.85486 2.63727,2.68048 2.49934,2.16275 3.50683,0.79529 5.79454,0.3718 -3.79546,2.14527 -7.59091,4.29054 -11.38637,6.43582 0.30797,-0.29964 0.61593,-0.59928 0.9239,-0.89891 l 13.313,-5.58312 c -0.28314,0.34587 -0.56629,0.69174 -0.84943,1.03761 -4.42111,2.69504 -8.84223,5.39009 -13.26334,8.08513 -2.59629,0.0396 -4.48923,0.2415 -6.76248,-1.70135 -1.3355,-1.12815 -2.82874,-2.05148 -3.50994,-3.75123 l 13.10285,-6.67623 z"
       id="path1903"
       style="fill:#000000;fill-opacity:1;fill-rule:nonzero;stroke:none" />
    <path
       d="m 299.48444,321.18284 c -1.83014,2.95267 -2.73774,6.29082 -3.76746,9.57025 -1.69355,4.20453 -1.49569,7.53735 -0.33821,11.23049 6.12848,1.02437 16.93755,-7.0122 -2.39489,3.89823 3.51057,-2.46975 6.65449,-5.31591 9.43695,-8.55757 1.67209,-2.10828 1.40228,-3.9739 1.26302,-6.35195 -1.18244,-2.32403 -3.49644,-2.94639 -5.7394,-3.90562 -1.07235,-4.36668 2.77777,-6.00793 6.09193,-8.62347 1.32651,-1.0814 2.74814,-2.03415 4.12221,-3.05123 l 13.16536,-5.18977 c -1.40301,1.00886 -2.89863,1.89678 -4.21276,3.02925 -2.23949,1.75138 -5.60273,3.84586 -6.99688,5.94141 2.55818,1.19607 4.95013,2.06078 6.22733,4.80483 0.40749,2.82251 1.02526,4.95466 -0.72881,7.63435 -2.71039,3.49763 -5.90304,6.42085 -9.4462,9.10813 -6.85701,4.07673 -14.73138,12.44018 -23.07864,8.74078 -2.36567,-4.24565 -1.51144,-7.86943 -0.0908,-12.64812 0.86188,-3.24156 1.61941,-6.53749 3.09538,-9.5711 l 13.39186,-6.05889 z"
       id="path1905"
       style="fill:#000000;fill-opacity:1;fill-rule:nonzero;stroke:none" />
    <path
       sodipodi:nodetypes="cccsccsccccsccccccccsssccsscccc"
       d="m 337.88689,440.51738 c 7.13509,-20.26062 15.41599,-40.12859 23.90461,-59.88529 32.40482,-64.533 54.68383,-132.54384 70.11655,-202.89747 5.5205,-1.75761 11.39807,-89.5187 11.68854,-89.592671 3.89404,-0.99166 8.03622,-0.08328 12.05432,-0.124914 -6.39787,55.749715 -7.18304,111.985915 -7.96229,168.040915 -2.61908,9.53537 4.89127,84.85476 -1.69689,89.40831 -5.10014,3.52506 -11.29053,5.12578 -16.9358,7.68867 -26.40361,-7.52771 -53.32662,-9.43687 -80.58568,-7.34078 -25.70375,5.29417 -30.71127,-0.6155 -18.26368,-25.40808 44.87901,-61.47613 95.0323,-118.85441 140.61628,-179.87818 10.77857,-10.42133 23.99294,-44.71886 43.62812,-45.748834 7.28585,-0.382184 -4.67016,35.982314 -12.30156,60.608784 -12.65073,37.01564 -36.57809,150.78655 -52.10325,182.04982 l 12.11612,-56.35755 c 11.98763,-36.88035 23.32854,-85.36222 33.75449,-122.72462 13.12055,-54.89779 25.64162,-84.240012 -19.77949,-20.11198 -45.88332,58.70105 -95.068,115.27253 -135.93107,177.60918 -10.07392,23.14162 -5.64814,26.70301 17.66479,23.04231 27.56761,-1.27513 54.70174,1.54576 81.85622,6.23151 -1.93629,1.93852 -3.08948,5.48086 -5.80887,5.81556 -2.14786,0.26436 2.82168,-3.44007 3.41573,-5.52101 1.13249,-3.96711 1.29724,-8.15527 1.66158,-12.26475 2.18758,-24.67411 1.89312,-49.53342 3.08597,-74.25257 0.96647,-54.9514 2.05146,-109.92307 1.71679,-164.882056 4.10927,-3.981375 7.79457,-8.453107 12.3278,-11.944124 4.414,-3.39919 -3.19776,10.694661 -4.22976,16.169405 -4.84465,25.700895 -9.01665,51.536925 -14.9016,77.036275 -16.03799,69.3109 -37.38418,136.81538 -67.09112,201.60087 -7.14254,18.86822 -15.56507,38.73214 -19.60929,58.55867 l -12.40756,5.0746 z"
       id="path1907"
       style="fill:#000000;fill-opacity:1;fill-rule:nonzero;stroke:none" />
    <path
       sodipodi:nodetypes="cscccccccccccccc"
       d="m 527.75371,269.10911 c 3.40292,-4.4572 4.17942,-6.18419 -8.07032,3.47178 -2.33487,1.84048 4.80988,-3.49801 7.15004,-5.33177 -15.12362,9.09661 3.21852,-3.38816 -2.88794,1.31731 -3.74082,3.58301 -4.55335,6.32179 -0.47449,9.75656 10.58424,0.81348 20.59161,-3.95689 29.50104,-9.18063 6.59754,-4.32698 12.15614,-1.00977 9.57388,3.80215 -0.18799,0.22409 -2.63801,1.31819 -5.95804,2.0643 l -13.51984,5.35133 c 0.29591,-0.12675 0.59182,-0.2535 0.88773,-0.38024 2.52888,-3.47048 4.25884,-5.63663 -1.56019,-2.28614 -9.37287,5.13441 -19.91692,9.79967 -30.82664,8.35837 -4.33115,-4.26829 -4.41277,-7.28961 0.67486,-11.79181 6.31672,-5.05992 20.69795,-17.31779 27.67622,-12.31236 -7.11688,5.74742 -14.75361,12.05254 -23.56525,14.60422 l 11.39894,-7.44307 z"
       id="path1919"
       style="fill:#000000;fill-opacity:1;fill-rule:nonzero;stroke:none" />
    <path
       d="m 552.62821,258.97573 c -0.0431,0.6259 0.58463,1.01802 0.83935,1.46159 3.84569,0.84304 5.61203,-2.09137 -4.83464,4.46161 l 8.00794,-3.50135 c -6.75647,4.29437 -5.89857,6.13538 -10.471,4.15509 -0.43354,-0.69755 -1.05506,-1.27736 -1.27829,-2.14418 l 7.73664,-4.43276 z"
       id="path1923"
       style="fill:#000000;fill-opacity:1;fill-rule:nonzero;stroke:none" />
    <path
       sodipodi:nodetypes="ccccccccccccccccccccccc"
       d="m 583.74455,256.25747 c -1.49426,-1.98931 -2.85352,-4.08867 -4.29178,-6.12364 -1.77777,-2.66963 -3.79225,-3.18729 -6.51025,-3.89986 3.21757,-1.14275 5.97578,-4.87326 1.46376,0.74771 -2.11081,2.94867 -3.36017,6.23909 -4.42945,9.66057 -1.05069,3.24032 -1.10991,6.6201 -1.2972,9.96914 3.27598,3.77648 -5.75102,5.9395 -0.79732,1.22181 11.92753,-16.71151 19.46752,-36.32804 24.944,-55.83724 5.17062,-18.6354 6.73993,-38.61072 8.87386,-57.83432 14.09881,-29.41744 2.10002,10.57852 0.68989,19.30593 -4.04689,27.63424 -8.31824,54.49262 -5.80642,82.30438 l -6.85804,3.40646 c 3.28532,-27.75699 5.96498,-55.57711 8.87245,-83.37508 0.17823,-1.53429 5.64206,-53.42879 11.02086,-25.55058 -2.79861,19.42295 -10.98573,42.02861 -14.02427,60.7504 -5.90245,34.62585 -8.42805,36.21389 -19.19346,53.30221 -4.01353,4.20776 -13.02664,13.98835 -16.27592,6.6951 0.0959,-3.44797 0.29899,-6.90934 1.2202,-10.26322 1.01915,-3.5102 2.22769,-6.88021 4.30884,-9.93286 3.56409,-5.0999 8.81143,-9.04122 15.10574,-10.18645 2.79267,1.05891 5.12491,1.83257 6.90871,4.63663 1.24766,1.71945 2.59751,3.87561 4.02309,5.22887 l -7.94729,5.77404 z"
       id="path1995"
       style="fill:#000000;fill-opacity:1;fill-rule:nonzero;stroke:none" />
    <path
       sodipodi:nodetypes="ccccccccccccccccc"
       d="m 607.39344,234.65068 c 0.54695,-2.28059 -0.36908,-3.99467 -1.02294,-5.95918 4.28229,-4.92662 2.02698,-1.68308 -1.79486,8.91242 -3.08872,10.92637 -0.0187,13.44655 -8.54487,17.65252 3.67265,-3.53211 6.1168,-8.14695 8.96221,-12.29829 12.37792,-7.33882 10.97112,-4.25901 9.51139,4.2451 -22.28778,15.31848 38.62406,-22.10563 47.19684,-30.14394 41.57014,-27.55939 21.94763,-15.06415 64.18041,-41.36411 l 2.25273,-0.57835 c -39.63573,24.97489 -12.9985,8.39134 -60.83945,41.2221 -15.93054,9.38024 -45.73438,33.77773 -62.01437,37.46823 1.62816,-8.59216 -1.47088,-9.86263 8.7319,-14.37577 -3.21015,3.75841 -6.04047,8.24997 -9.16381,12.33904 -17.47541,9.99044 -10.65596,2.05668 -8.38688,-10.3686 3.34744,-10.00411 6.56468,-17.26535 18.20635,-17.60606 0.77573,2.12191 1.88601,3.93262 1.46057,6.40407 l -8.73522,4.45082 z"
       id="path2001"
       style="fill:#000000;fill-opacity:1;fill-rule:nonzero;stroke:none" />
    <path
       sodipodi:nodetypes="ccccccccccccccccc"
       d="m 476.46329,282.37424 c -0.58328,5.19712 -0.16167,10.34824 0.60877,15.49565 -3.34092,11.2865 -11.70803,16.01426 -3.80701,-2.94751 3.67915,-10.476 15.43221,-20.26145 21.68699,-7.75236 3.65193,4.37145 -12.93419,13.5505 -9.17829,3.47434 2.94503,-9.55891 11.86857,-10.71442 19.62207,-14.03332 2.34582,2.51019 4.1942,5.42591 6.34459,8.10496 0.42772,0.3932 0.85544,0.7864 1.28315,1.1796 l -4.86255,2.8211 c -0.46772,-0.4394 -1.63145,0.33922 -3.66518,-2.1882 -3.9025,-3.88281 -8.73051,0.286 -11.06715,-1.871 9.04962,-6.22771 11.45168,-10.54958 5.18452,-0.0267 -1.91725,6.5158 -13.07014,18.9865 -16.00134,9.4884 -4.84979,-9.58848 11.22276,-17.34453 2.96272,-4.88199 -2.61706,6.61644 -15.24019,30.36911 -20.81036,15.13091 -0.72899,-5.09116 -1.2651,-10.17386 -1.40377,-15.31764 l 13.10284,-6.67623 z"
       id="path2003"
       style="fill:#000000;fill-opacity:1;fill-rule:nonzero;stroke:none" />
    <path
       d="m 180.72374,490.72593 c 36.68353,-42.92443 96.6515,-64.96359 147.15855,-87.91739 108.89159,-44.40908 224.06798,-69.49895 338.92009,-92.77421 l -11.93207,9.02226 c -115.52956,21.21928 -230.91446,46.75473 -339.23565,93.49348 -37.40344,17.83011 -79.31211,33.47173 -108.22483,64.57862 l -26.68609,13.59724 z"
       id="path2007"
       style="fill:#000000;fill-opacity:1;fill-rule:nonzero;stroke:none" />
  </g>
</svg>
